<svg width="107" height="35" viewBox="0 0 107 35" fill="none" xmlns="http://www.w3.org/2000/svg">
<path d="M41.232 23V12.57H45.614C46.202 12.57 46.7107 12.682 47.14 12.906C47.5787 13.1207 47.9147 13.424 48.148 13.816C48.3907 14.208 48.512 14.6653 48.512 15.188C48.512 15.7293 48.3767 16.21 48.106 16.63C47.8447 17.0407 47.4667 17.3533 46.972 17.568L46.958 17.232C47.3687 17.3813 47.7187 17.5913 48.008 17.862C48.3067 18.1327 48.5353 18.45 48.694 18.814C48.8527 19.1687 48.932 19.5513 48.932 19.962C48.932 20.8953 48.6333 21.6373 48.036 22.188C47.448 22.7293 46.6453 23 45.628 23H41.232ZM42.352 21.95H45.628C46.2907 21.95 46.818 21.7773 47.21 21.432C47.6113 21.0773 47.812 20.592 47.812 19.976C47.812 19.3693 47.6113 18.8887 47.21 18.534C46.818 18.17 46.2907 17.988 45.628 17.988H42.352V21.95ZM42.352 16.98H45.53C46.09 16.98 46.538 16.8167 46.874 16.49C47.2193 16.1633 47.392 15.7433 47.392 15.23C47.392 14.7073 47.2193 14.3107 46.874 14.04C46.538 13.76 46.09 13.62 45.53 13.62H42.352V16.98ZM52.4716 23V13.62H49.5876V12.57H56.4476V13.62H53.5916V23H52.4716ZM61.3437 23.168C60.681 23.168 60.079 23.042 59.5377 22.79C58.9963 22.538 58.539 22.202 58.1657 21.782C57.7923 21.3527 57.5263 20.8813 57.3677 20.368L58.3757 19.99C58.6183 20.6993 58.9963 21.2407 59.5097 21.614C60.023 21.978 60.6343 22.16 61.3437 22.16C61.7917 22.16 62.1837 22.09 62.5197 21.95C62.865 21.8007 63.131 21.5953 63.3177 21.334C63.5043 21.0727 63.5977 20.7693 63.5977 20.424C63.5977 19.9107 63.4577 19.514 63.1777 19.234C62.8977 18.954 62.4963 18.7393 61.9737 18.59L60.0977 18.03C59.3603 17.8153 58.791 17.456 58.3897 16.952C57.9977 16.448 57.8017 15.874 57.8017 15.23C57.8017 14.6793 57.937 14.194 58.2077 13.774C58.4783 13.3447 58.847 13.0087 59.3137 12.766C59.7897 12.5233 60.3263 12.402 60.9237 12.402C61.549 12.402 62.109 12.5187 62.6037 12.752C63.1077 12.976 63.5323 13.2747 63.8777 13.648C64.223 14.0213 64.4703 14.4367 64.6197 14.894L63.6397 15.286C63.4157 14.67 63.0657 14.2033 62.5897 13.886C62.123 13.5687 61.5723 13.41 60.9377 13.41C60.5363 13.41 60.1817 13.48 59.8737 13.62C59.575 13.76 59.3417 13.9607 59.1737 14.222C59.0057 14.4833 58.9217 14.7913 58.9217 15.146C58.9217 15.5753 59.057 15.9627 59.3277 16.308C59.5983 16.644 60.0137 16.896 60.5737 17.064L62.2257 17.554C63.047 17.7967 63.6677 18.1467 64.0877 18.604C64.5077 19.0613 64.7177 19.6353 64.7177 20.326C64.7177 20.886 64.573 21.3807 64.2837 21.81C64.0037 22.23 63.607 22.5613 63.0937 22.804C62.5897 23.0467 62.0063 23.168 61.3437 23.168ZM68.1813 23L71.9893 12.57H73.1933L77.0013 23H75.8253L74.9293 20.452H70.2673L69.3573 23H68.1813ZM70.6313 19.402H74.5373L72.4233 13.41H72.7593L70.6313 19.402ZM78.3922 23V12.57H81.9762C82.6575 12.57 83.2548 12.7053 83.7682 12.976C84.2815 13.2373 84.6782 13.6107 84.9582 14.096C85.2475 14.572 85.3922 15.1273 85.3922 15.762C85.3922 16.4993 85.1962 17.1293 84.8042 17.652C84.4215 18.1747 83.8988 18.5433 83.2362 18.758L85.6722 23H84.3562L81.8082 18.506L82.5642 18.94H79.5122V23H78.3922ZM79.5122 17.89H82.0322C82.4802 17.89 82.8722 17.806 83.2082 17.638C83.5442 17.4607 83.8055 17.2133 83.9922 16.896C84.1788 16.5693 84.2722 16.1867 84.2722 15.748C84.2722 15.3093 84.1788 14.9313 83.9922 14.614C83.8055 14.2967 83.5442 14.054 83.2082 13.886C82.8722 13.7087 82.4802 13.62 82.0322 13.62H79.5122V17.89ZM87.3609 23V12.57H88.3409L92.2609 18.254H91.7149L95.6209 12.57H96.6009V23H95.4809V14.082L95.8449 14.222L92.0089 19.78H91.9529L88.1309 14.222L88.4809 14.082V23H87.3609ZM101.64 23V18.156L97.986 12.57H99.232L102.424 17.428H101.976L105.154 12.57H106.4L102.76 18.156V23H101.64Z" fill="white"/>
<path d="M16.2695 1.09375C16.052 1.09375 15.8433 1.18018 15.6895 1.33401C15.5356 1.48785 15.4492 1.6965 15.4492 1.91406V5.36621C9.62979 6.34259 5.19531 11.403 5.19531 17.5C5.19531 23.597 9.62979 28.6574 15.4492 29.6338V33.0859C15.4492 33.3035 15.5356 33.5121 15.6895 33.666C15.8433 33.8198 16.052 33.9062 16.2695 33.9062H18.7305C18.948 33.9062 19.1567 33.8198 19.3105 33.666C19.4644 33.5121 19.5508 33.3035 19.5508 33.0859V29.6338C25.3702 28.6574 29.8047 23.597 29.8047 17.5C29.8047 11.403 25.3702 6.34259 19.5508 5.36621V1.91406C19.5508 1.6965 19.4644 1.48785 19.3105 1.33401C19.1567 1.18018 18.948 1.09375 18.7305 1.09375H16.2695ZM15.4492 11.698V13.6035C15.4492 13.8211 15.5356 14.0297 15.6895 14.1836C15.8433 14.3374 16.052 14.4238 16.2695 14.4238H18.7305C18.948 14.4238 19.1567 14.3374 19.3105 14.1836C19.4644 14.0297 19.5508 13.8211 19.5508 13.6035V11.698C21.9403 12.5426 23.6523 14.8213 23.6523 17.5C23.6523 20.1787 21.9403 22.4574 19.5508 23.302V21.3965C19.5508 21.1789 19.4644 20.9703 19.3105 20.8164C19.1567 20.6626 18.948 20.5762 18.7305 20.5762H16.2695C16.052 20.5762 15.8433 20.6626 15.6895 20.8164C15.5356 20.9703 15.4492 21.1789 15.4492 21.3965V23.302C13.0597 22.4574 11.3477 20.1787 11.3477 17.5C11.3477 14.8213 13.0597 12.5426 15.4492 11.698Z" fill="white"/>
</svg>
