<svg width="168" height="35" viewBox="0 0 168 35" fill="none" xmlns="http://www.w3.org/2000/svg">
<path d="M49.728 26V8.12H57.264C58.448 8.12 59.456 8.328 60.288 8.744C61.136 9.144 61.784 9.72 62.232 10.472C62.696 11.208 62.928 12.104 62.928 13.16C62.928 13.976 62.704 14.744 62.256 15.464C61.824 16.168 61.128 16.752 60.168 17.216V15.704C61.048 16.04 61.744 16.456 62.256 16.952C62.768 17.448 63.128 18 63.336 18.608C63.544 19.216 63.648 19.856 63.648 20.528C63.648 22.24 63.08 23.584 61.944 24.56C60.824 25.52 59.264 26 57.264 26H49.728ZM52.992 23.12H57.6C58.448 23.12 59.12 22.888 59.616 22.424C60.128 21.944 60.384 21.312 60.384 20.528C60.384 19.744 60.128 19.112 59.616 18.632C59.12 18.152 58.448 17.912 57.6 17.912H52.992V23.12ZM52.992 15.056H57.432C58.104 15.056 58.64 14.864 59.04 14.48C59.44 14.08 59.64 13.568 59.64 12.944C59.64 12.32 59.44 11.824 59.04 11.456C58.64 11.088 58.104 10.904 57.432 10.904H52.992V15.056ZM69.021 26V11H64.389V8.12H76.869V11H72.309V26H69.021ZM85.2448 26.288C84.1088 26.288 83.0528 26.08 82.0768 25.664C81.1168 25.248 80.2848 24.672 79.5808 23.936C78.8928 23.184 78.3888 22.312 78.0688 21.32L80.7808 20.144C81.2128 21.168 81.8368 21.976 82.6528 22.568C83.4688 23.144 84.3888 23.432 85.4128 23.432C85.9888 23.432 86.4848 23.344 86.9008 23.168C87.3328 22.976 87.6608 22.72 87.8848 22.4C88.1248 22.08 88.2448 21.696 88.2448 21.248C88.2448 20.72 88.0848 20.288 87.7648 19.952C87.4608 19.6 86.9968 19.328 86.3728 19.136L82.9408 18.032C81.5488 17.6 80.5008 16.952 79.7968 16.088C79.0928 15.224 78.7408 14.208 78.7408 13.04C78.7408 12.016 78.9888 11.112 79.4848 10.328C79.9968 9.544 80.7008 8.936 81.5968 8.504C82.5088 8.056 83.5488 7.832 84.7168 7.832C85.7888 7.832 86.7728 8.024 87.6688 8.408C88.5648 8.776 89.3328 9.296 89.9728 9.968C90.6288 10.624 91.1168 11.4 91.4368 12.296L88.7488 13.496C88.3968 12.6 87.8688 11.912 87.1648 11.432C86.4608 10.936 85.6448 10.688 84.7168 10.688C84.1728 10.688 83.6928 10.784 83.2768 10.976C82.8608 11.152 82.5328 11.408 82.2928 11.744C82.0688 12.064 81.9568 12.448 81.9568 12.896C81.9568 13.392 82.1168 13.832 82.4368 14.216C82.7568 14.584 83.2448 14.872 83.9008 15.08L87.1888 16.112C88.6128 16.576 89.6768 17.216 90.3808 18.032C91.1008 18.848 91.4608 19.856 91.4608 21.056C91.4608 22.08 91.1968 22.984 90.6688 23.768C90.1408 24.552 89.4128 25.168 88.4848 25.616C87.5568 26.064 86.4768 26.288 85.2448 26.288ZM97.2015 26L103.37 8.12H107.594L113.762 26H110.21L108.938 22.16H102.026L100.73 26H97.2015ZM102.962 19.28H108.002L105.026 10.376H105.938L102.962 19.28ZM115.751 26V8.12H122.399C123.615 8.12 124.687 8.344 125.615 8.792C126.559 9.224 127.295 9.864 127.823 10.712C128.351 11.544 128.615 12.56 128.615 13.76C128.615 14.992 128.319 16.04 127.727 16.904C127.151 17.768 126.367 18.408 125.375 18.824L129.479 26H125.783L121.391 18.152L123.503 19.4H119.015V26H115.751ZM119.015 16.52H122.447C123.039 16.52 123.551 16.408 123.983 16.184C124.415 15.944 124.751 15.616 124.991 15.2C125.231 14.784 125.351 14.304 125.351 13.76C125.351 13.2 125.231 12.72 124.991 12.32C124.751 11.904 124.415 11.584 123.983 11.36C123.551 11.12 123.039 11 122.447 11H119.015V16.52ZM131.619 26V8.12H134.739L141.435 17.216H139.947L146.499 8.12H149.619V26H146.331V11.84L147.603 12.152L140.811 21.2H140.427L133.803 12.152L134.883 11.84V26H131.619ZM157.601 26V18.08L151.577 8.12H155.297L159.905 15.896H158.585L163.169 8.12H166.889L160.889 18.056V26H157.601Z" fill="#377240"/>
<rect width="35" height="35" fill="#377240"/>
<path d="M16.2695 1.09375C16.052 1.09375 15.8433 1.18018 15.6895 1.33401C15.5356 1.48785 15.4492 1.6965 15.4492 1.91406V5.36621C9.62979 6.34259 5.19531 11.403 5.19531 17.5C5.19531 23.597 9.62979 28.6574 15.4492 29.6338V33.0859C15.4492 33.3035 15.5356 33.5121 15.6895 33.666C15.8433 33.8198 16.052 33.9062 16.2695 33.9062H18.7305C18.948 33.9062 19.1567 33.8198 19.3105 33.666C19.4644 33.5121 19.5508 33.3035 19.5508 33.0859V29.6338C25.3702 28.6574 29.8047 23.597 29.8047 17.5C29.8047 11.403 25.3702 6.34259 19.5508 5.36621V1.91406C19.5508 1.6965 19.4644 1.48785 19.3105 1.33401C19.1567 1.18018 18.948 1.09375 18.7305 1.09375H16.2695ZM15.4492 11.698V13.6035C15.4492 13.8211 15.5356 14.0297 15.6895 14.1836C15.8433 14.3374 16.052 14.4238 16.2695 14.4238H18.7305C18.948 14.4238 19.1567 14.3374 19.3105 14.1836C19.4644 14.0297 19.5508 13.8211 19.5508 13.6035V11.698C21.9403 12.5426 23.6523 14.8213 23.6523 17.5C23.6523 20.1787 21.9403 22.4574 19.5508 23.302V21.3965C19.5508 21.1789 19.4644 20.9703 19.3105 20.8164C19.1567 20.6626 18.948 20.5762 18.7305 20.5762H16.2695C16.052 20.5762 15.8433 20.6626 15.6895 20.8164C15.5356 20.9703 15.4492 21.1789 15.4492 21.3965V23.302C13.0597 22.4574 11.3477 20.1787 11.3477 17.5C11.3477 14.8213 13.0597 12.5426 15.4492 11.698Z" fill="white"/>
</svg>
